Coordinates
version=1
nRows=21
nColumns=12
inDegrees=yes

Units are S.I. units (second, meters, Newtons, ...)
Angles are in degrees

endheader
time	SC_y	SC_z	SC_x	AC_y	AC_z	AC_x	GH_y	GH_z	GH_yy	EL_x	PS_y
       0.0              -52.65          23.49          2.684          41.04          6.641         -7.798         -25.26          48.85         -137.1          60.47          39.64
   0.03139              -52.65          23.48          2.694          41.05          6.639         -7.797         -25.28          48.84         -137.1          60.48          39.66
   0.06278              -52.65          23.48          2.706          41.05          6.638         -7.795          -25.3          48.83         -137.1          60.48          39.67
   0.09417              -52.65          23.48          2.718          41.05          6.636         -7.794         -25.33          48.82         -137.1          60.49          39.69
    0.1256              -52.65          23.47           2.73          41.05          6.634         -7.792         -25.36          48.81         -137.1          60.49          39.71
    0.1569              -52.65          23.47          2.744          41.05          6.632          -7.79         -25.39           48.8         -137.1           60.5          39.73
    0.1883              -52.64          23.47          2.758          41.06          6.629         -7.788         -25.42          48.79         -137.1          60.51          39.75
    0.2197              -52.64          23.46          2.774          41.06          6.627         -7.786         -25.45          48.78         -137.1          60.51          39.77
    0.2511              -52.64          23.46           2.79          41.06          6.624         -7.784         -25.49          48.77         -137.1          60.52           39.8
    0.2825              -52.64          23.46          2.808          41.06          6.621         -7.781         -25.52          48.75         -137.1          60.53          39.82
    0.3139              -52.64          23.45          2.827          41.07          6.618         -7.779         -25.56          48.74         -137.0          60.54          39.85
    0.3453              -52.64          23.45          2.847          41.07          6.615         -7.776         -25.61          48.72         -137.0          60.54          39.88
    0.3767              -52.63          23.44          2.869          41.07          6.612         -7.773         -25.65          48.71         -137.0          60.55          39.91
     0.408              -52.63          23.43          2.893          41.08          6.608          -7.77         -25.71          48.69         -137.0          60.56          39.95
    0.4394              -52.63          23.43          2.919          41.08          6.604         -7.766         -25.76          48.67         -137.0          60.57          39.98
    0.4708              -52.62          23.42          2.947          41.09          6.599         -7.763         -25.82          48.65         -137.0          60.59          40.03
    0.5022              -52.62          23.41          2.977          41.09          6.595         -7.758         -25.89          48.63         -137.0           60.6          40.07
    0.5336              -52.62           23.4           3.01           41.1          6.589         -7.754         -25.96           48.6         -137.0          60.61          40.12
     0.565              -52.61          23.39          3.046           41.1          6.584         -7.749         -26.03          48.57         -137.0          60.63          40.17
    0.5964              -52.61          23.38          3.086          41.11          6.577         -7.744         -26.12          48.54         -137.0          60.64          40.23
    0.6278               -52.6          23.37          3.129          41.11          6.571         -7.738         -26.21          48.51         -136.9          60.66          40.29
